<svg width="119" height="204" viewBox="0 0 119 204" fill="none" xmlns="http://www.w3.org/2000/svg">
<mask id="mask0_272_142" style="mask-type:alpha" maskUnits="userSpaceOnUse" x="0" y="0" width="119" height="204">
<rect width="119" height="204" fill="#D9D9D9"/>
</mask>
<g mask="url(#mask0_272_142)">
<path d="M62.8075 45.5176C62.8075 45.5176 68.1593 50.3318 75.8075 56.5176" stroke="black" stroke-width="1.5" stroke-linecap="round" stroke-linejoin="round"/>
<path d="M72.3018 114.295C72.3018 114.295 91.8076 158.018 80.8076 205.518" stroke="black" stroke-width="1.5"/>
<path d="M63.3075 113.517C63.3075 113.517 67.8075 147.517 59.3075 204.017M17.3075 204.017C17.3075 204.017 15.7036 131.584 15.7036 100.385" stroke="black" stroke-width="1.5"/>
<path d="M53.5238 14.7184V29.4873L35.2278 33.9843V9.06039L53.5238 4.56372V14.7184Z" fill="#EDEEEF"/>
<path d="M43.1887 19.8282C43.4588 19.8282 43.6778 19.6092 43.6778 19.3391C43.6778 19.0689 43.4588 18.8499 43.1887 18.8499C42.9185 18.8499 42.6995 19.0689 42.6995 19.3391C42.6995 19.6092 42.9185 19.8282 43.1887 19.8282Z" fill="black"/>
<path d="M50.7023 19.8282C50.9725 19.8282 51.1915 19.6092 51.1915 19.3391C51.1915 19.0689 50.9725 18.8499 50.7023 18.8499C50.4322 18.8499 50.2131 19.0689 50.2131 19.3391C50.2131 19.6092 50.4322 19.8282 50.7023 19.8282Z" fill="black"/>
<path d="M48.4982 22.2571V14.7183H52.2746" stroke="black" stroke-width="1.5" stroke-linecap="round" stroke-linejoin="round"/>
<path d="M42.2671 14.7186H46.0439" stroke="black" stroke-width="1.5" stroke-linecap="round" stroke-linejoin="round"/>
<path d="M36.4328 18.5811V21.1991C35.0206 21.1991 33.8757 20.0543 33.8757 18.6421C33.8757 18.5636 33.8792 18.4861 33.8862 18.4093C34.0294 16.8215 36.4328 16.9868 36.4328 18.5811Z" fill="#EDEEEF"/>
<path d="M36.4328 21.1991C35.0206 21.1991 33.8757 20.0543 33.8757 18.6421" stroke="black" stroke-width="1.5" stroke-linecap="round" stroke-linejoin="round"/>
<path d="M46.8461 24.1159C45.4168 24.1159 44.2581 22.9572 44.2581 21.5278" stroke="black" stroke-width="1.5" stroke-linecap="round" stroke-linejoin="round"/>
<path d="M53.5239 29.4878L35.2278 33.9847" stroke="black" stroke-width="1.5" stroke-linecap="round" stroke-linejoin="round"/>
<path d="M48.498 22.2632L46.8462 22.6692" stroke="black" stroke-width="1.5" stroke-linecap="round" stroke-linejoin="round"/>
<path d="M36.4329 18.2168C36.4329 18.2168 38.7647 13.9628 38.8797 12.0658L39.512 14.7182C39.512 14.7182 43.8235 13.388 46.4678 10.1113V13.4838C46.4678 13.4838 51.5543 12.4107 52.8626 9.01904V12.1808C52.8626 12.1808 54.4584 11.0885 54.8608 9.42145" stroke="black" stroke-width="1.5" stroke-linecap="round" stroke-linejoin="round"/>
<path d="M53.524 15.0552C53.524 15.0552 62.82 5.19326 50.2132 2.46578C41.1792 0.511261 36.4329 5.34008 36.4329 5.34008C36.4329 5.34008 33.3036 6.83471 32.0389 9.36409C30.7742 11.8935 30.2538 18.3894 35.2279 23.2182" stroke="black" stroke-width="1.5" stroke-linecap="round" stroke-linejoin="round"/>
<path d="M15.7036 60.4321V100.385L72.3017 114.296V69.7993C72.3017 54.0217 61.5305 40.2825 46.2089 36.5167H46.2088C38.8611 34.7107 31.091 36.3827 25.1364 41.051C19.1818 45.7193 15.7036 52.8657 15.7036 60.4321V60.4321Z" stroke="black"/>
<path d="M53.524 90.5989C53.524 90.5989 53.5555 57.6935 72.3017 57.4831C91.048 57.2727 84.5243 35.7932 84.5243 35.7932L115.249 42.7521C115.249 42.7521 120.3 72.2141 94.4151 81.0476C81.1875 85.5618 86.8475 116.346 86.8475 116.346L52.8627 112.409V107.871" stroke="black" stroke-width="1.5"/>
<path d="M20.5518 45.749C20.5518 45.749 2.77227 69.0345 3.00221 96.3978C3.23216 123.761 45.5418 121.232 61.6379 99.3871C61.6379 99.3871 72.2153 92.0289 70.6057 90.4193C68.9961 88.8097 61.9498 90.3486 61.9498 90.3486C61.9498 90.3486 63.2475 86.6252 61.293 87.545C59.3384 88.4647 56.7188 90.3864 56.7188 90.3864L31.0288 92.0931L36.8862 68.1147" stroke="black" stroke-width="1.5" stroke-linecap="round" stroke-linejoin="round"/>
<path d="M20.5518 45.749C20.5518 45.749 2.77227 69.0345 3.00221 96.3978C3.23216 123.761 45.5418 121.232 61.6379 99.3871C61.6379 99.3871 72.2153 92.0289 70.6057 90.4193C68.9961 88.8097 61.9498 90.3486 61.9498 90.3486C61.9498 90.3486 63.2475 86.6252 61.293 87.545C59.3384 88.4647 56.7188 90.3864 56.7188 90.3864L31.0288 92.0931L36.8862 68.1147" stroke="black" stroke-width="1.5" stroke-linecap="round" stroke-linejoin="round"/>
<path d="M16.166 114.73V134.107C43.5864 127.668 57.3446 104.217 57.3446 104.217L57.3437 104.216C46.1483 114.783 28.3259 118.921 16.166 114.73Z" fill="black"/>
<path d="M81.5856 110.367C81.5856 110.367 101.418 115.886 105.385 106.745C109.351 97.605 102.281 72.4261 102.281 72.4261C102.281 72.4261 104.35 67.9422 103.315 66.735C102.281 65.5278 101.246 66.735 101.246 66.735C101.246 66.735 99.6074 58.802 97.1068 59.4056C94.6061 60.0092 92.7523 72.286 91.8076 82.0173" stroke="black" stroke-width="1.5" stroke-linecap="round" stroke-linejoin="round"/>
</g>
</svg>
