<svg width="121" height="286" viewBox="0 0 121 286" fill="none" xmlns="http://www.w3.org/2000/svg">
<path d="M35.4938 102.577C35.4938 102.577 -32.432 228.672 113.117 237.297L120.125 243.227V201.719L71.2257 186.625L69.7881 86.3574" fill="#E2E2E2"/>
<path d="M70.9277 165.832C59.2873 170.661 50.5233 191.774 50.5233 217.089C50.5233 218.36 50.5456 219.62 50.5901 220.869C62.4447 228.12 78.4353 233.541 99.746 236.109C100.918 229.837 101.5 223.469 101.485 217.089C101.511 209.745 100.732 202.421 99.1611 195.248L71.2258 186.625L70.9277 165.832Z" fill="black"/>
<path d="M44.5609 101.695L86.6425 98.8125L94.2944 101.928L97.8906 285.707H58.8042L62.9369 278.3L44.5609 101.695Z" fill="#EDEEEF"/>
<path d="M49.3149 13.314V19.9564C49.3149 25.0926 52.8213 29.5651 57.8091 30.791L68.3793 33.389V7.41858L59.5902 5.25838C57.1153 4.65007 54.498 5.21324 52.4923 6.78569C50.4865 8.35815 49.3149 10.7653 49.3149 13.314V13.314Z" fill="#EDEEEF"/>
<path d="M49.3149 19.9565C49.3149 25.0927 52.8213 29.5653 57.8091 30.7912L68.3793 33.3891" stroke="black" stroke-width="1.5" stroke-linecap="round" stroke-linejoin="round"/>
<path d="M60.0842 18.6386C60.3657 18.6386 60.5939 18.4104 60.5939 18.1289C60.5939 17.8474 60.3657 17.6191 60.0842 17.6191C59.8027 17.6191 59.5745 17.8474 59.5745 18.1289C59.5745 18.4104 59.8027 18.6386 60.0842 18.6386Z" fill="black"/>
<path d="M52.2551 18.6386C52.5366 18.6386 52.7648 18.4104 52.7648 18.1289C52.7648 17.8474 52.5366 17.6191 52.2551 17.6191C51.9736 17.6191 51.7454 17.8474 51.7454 18.1289C51.7454 18.4104 51.9736 18.6386 52.2551 18.6386Z" fill="black"/>
<path d="M54.5518 21.1693V13.314H50.6168" stroke="black" stroke-width="1.5" stroke-linecap="round" stroke-linejoin="round"/>
<path d="M61.0445 13.314H57.1091" stroke="black" stroke-width="1.5" stroke-linecap="round" stroke-linejoin="round"/>
<path d="M67.1237 17.3393V20.0673C68.5952 20.0673 69.7881 18.8744 69.7881 17.4029C69.7881 17.3211 69.7844 17.2403 69.7772 17.1603C69.6279 15.5058 67.1237 15.6781 67.1237 17.3393Z" fill="#EDEEEF"/>
<path d="M67.1237 20.0672C68.5952 20.0672 69.7881 18.8743 69.7881 17.4028" stroke="black" stroke-width="1.5" stroke-linecap="round" stroke-linejoin="round"/>
<path d="M56.7037 22.0874C57.0346 22.4183 57.4834 22.6042 57.9513 22.6042C58.4192 22.6042 58.868 22.4183 59.1988 22.0874" stroke="#DC911B" stroke-width="1.5" stroke-linecap="round" stroke-linejoin="round"/>
<path d="M54.552 21.1758L56.2732 21.5988" stroke="black" stroke-width="1.5" stroke-linecap="round" stroke-linejoin="round"/>
<path d="M35.4938 60.9472V102.577L94.4685 117.072V70.7077C94.4685 54.2675 83.245 39.9514 67.28 36.0275H67.2799C59.6237 34.1458 51.5273 35.8879 45.3227 40.7522C39.118 45.6165 35.4938 53.063 35.4938 60.9471V60.9472Z" fill="#DC911B"/>
<path d="M62.9371 278.301L44.561 101.695" stroke="black" stroke-width="1.5" stroke-linecap="round" stroke-linejoin="round"/>
<path d="M55.4127 29.8989C55.4127 29.8989 55.4127 38.4428 40.9155 37.6734L37.5967 34.3546C37.5967 34.3546 39.4303 -3.47519 65.1668 1.44073C69.2353 2.21784 72.8625 4.62716 74.835 8.2693C77.0357 12.3327 77.3892 18.2319 68.456 24.6304" stroke="black" stroke-width="1.5" stroke-linecap="round" stroke-linejoin="round"/>
<path d="M36.3495 35.6504C36.4843 35.6504 39.6739 38.9748 39.6739 38.9748" stroke="#DC911B" stroke-width="1.5" stroke-linecap="round" stroke-linejoin="round"/>
<path d="M49.3149 16.8135C49.3149 16.8135 58.0047 14.6571 60.594 9.35596C60.594 9.35596 63.4269 16.6966 67.1237 17.3391" stroke="black" stroke-width="1.5" stroke-linecap="round" stroke-linejoin="round"/>
<path d="M35.7193 37.313C35.7193 37.313 26.5546 42.4807 28.112 55.0596C28.604 59.2306 30.6987 63.0468 33.9533 65.7015C35.624 67.106 37.934 67.4725 39.9575 66.6543C41.981 65.8361 43.387 63.967 43.612 61.796C43.8821 59.3481 44.4014 56.8349 45.3631 54.9398C49.315 47.1528 37.4112 38.9752 37.4112 38.9752" stroke="black" stroke-width="1.5" stroke-linecap="round" stroke-linejoin="round"/>
<path d="M82.2504 43.811C82.2504 43.811 141.083 109.808 83.9386 143.591L74.5942 127.931L87.892 103.698L74.5942 81.4153" stroke="black" stroke-width="1.5" stroke-linecap="round" stroke-linejoin="round"/>
<path d="M83.9386 143.591L69.3558 119.152" stroke="black" stroke-width="1.5" stroke-linecap="round" stroke-linejoin="round"/>
<path d="M13.6196 44.3924C13.0906 42.0276 13.3264 39.5559 14.2932 37.3339C17.0553 30.8491 24.6103 14.7885 31.8786 14.2852C40.9929 13.6542 38.1177 21.6808 34.8831 23.5976C33.0781 24.7337 30.7701 24.6866 29.0129 23.4778C29.0129 23.4778 20.2831 34.0851 21.226 37.3745C21.226 37.3745 26.2575 37.3745 24.5803 42.1665C23.1128 46.3595 15.4999 52.4786 13.6196 44.3924Z" fill="#DC911B"/>
<path d="M20.8641 31.3029C20.8641 31.3029 27.6927 25.5291 20.8641 23.5524C14.0356 21.5757 -1.23888 42.7802 1.27691 66.1411C3.7927 89.502 20.4732 104.956 35.4939 92.1975" stroke="black" stroke-width="1.5" stroke-linecap="round" stroke-linejoin="round"/>
<path d="M21.1116 46.7261C21.1116 46.7261 22.2209 57.1558 25.6756 63.4452L29.5647 60.1088" stroke="black" stroke-width="1.5" stroke-linecap="round" stroke-linejoin="round"/>
</svg>
